# Blender 3.3.1
# www.blender.org
mtllib stair.mtl
o Cube
v -0.500164 -0.054534 1.710528
v -0.500164 0.061135 1.710528
v -0.500164 -0.054534 -1.710528
v -0.500164 0.061135 -1.710528
v 0.500164 -0.054534 1.710528
v 0.500164 0.061135 1.710528
v 0.500164 -0.054534 -1.710528
v 0.500164 0.061135 -1.710528
v 0.449379 -0.098449 -1.710528
v 0.449379 0.098449 -1.710528
v 0.449379 -0.098449 1.710528
v 0.449379 0.098449 1.710528
v -0.449885 -0.098449 -1.710528
v -0.449885 0.098449 1.710528
v -0.449885 0.098449 -1.710528
v -0.449885 -0.098449 1.710528
vn -1.0000 -0.0000 -0.0000
vn -0.0000 -0.0000 -1.0000
vn 1.0000 -0.0000 -0.0000
vn -0.0000 -0.0000 1.0000
vn 0.6541 -0.7564 -0.0000
vn -0.5959 0.8030 -0.0000
vn 0.5921 0.8059 -0.0000
vn -0.0000 -1.0000 -0.0000
vn -0.6578 -0.7532 -0.0000
vn -0.0000 1.0000 -0.0000
vt 0.375000 0.000000
vt 0.375000 1.000000
vt 0.125000 0.750000
vt 0.625000 0.000000
vt 0.625000 1.000000
vt 0.875000 0.750000
vt 0.375000 0.250000
vt 0.125000 0.500000
vt 0.875000 0.500000
vt 0.625000 0.250000
vt 0.375000 0.750000
vt 0.625000 0.750000
vt 0.375000 0.500000
vt 0.625000 0.500000
vt 0.362308 0.500000
vt 0.375000 0.487308
vt 0.625000 0.487308
vt 0.637692 0.500000
vt 0.362308 0.750000
vt 0.375000 0.762692
vt 0.637692 0.750000
vt 0.625000 0.762692
vt 0.375000 0.262566
vt 0.137566 0.500000
vt 0.862434 0.750000
vt 0.625000 0.987434
vt 0.625000 0.262566
vt 0.862434 0.500000
vt 0.137566 0.750000
vt 0.375000 0.987434
s 0
f 1/1/1 2/4/1 4/10/1 3/7/1
f 9/16/2 10/17/2 8/14/2 7/13/2
f 7/13/3 8/14/3 6/12/3 5/11/3
f 16/30/4 14/26/4 2/5/4 1/2/4
f 9/15/5 7/13/5 5/11/5 11/19/5
f 15/28/6 4/9/6 2/6/6 14/25/6
f 8/14/7 10/18/7 12/21/7 6/12/7
f 13/24/8 9/15/8 11/19/8 16/29/8
f 5/11/4 6/12/4 12/22/4 11/20/4
f 13/23/2 15/27/2 10/17/2 9/16/2
f 3/7/2 4/10/2 15/27/2 13/23/2
f 3/8/9 13/24/9 16/29/9 1/3/9
f 10/18/10 15/28/10 14/25/10 12/21/10
f 11/20/4 12/22/4 14/26/4 16/30/4
